<svg id="Layer_1" data-name="Layer 1" xmlns="http://www.w3.org/2000/svg" viewBox="0 0 145.01 144.77"><defs><style>.cls-1{fill:none;stroke:#2d2d74;stroke-miterlimit:10;stroke-width:6px;}</style></defs><g id="Слой_2" data-name="Слой 2"><path class="cls-1" d="M63.25,85.37s18.62,18.35,26.19,19.81L105,89.63s6.11-5.85,12.63.13L143,115.15s4.12,7.58-.67,12.23L130,139.75s-21.8,13.95-56.77-8.38a143.52,143.52,0,0,1-31.77-24.2" transform="translate(-2.66 -2.29)"/><path class="cls-1" d="M64.58,86.7S46.24,68.09,44.64,60.51L60.2,45s5.85-6.12-.14-12.63L34.54,6.94S27,2.81,22.31,7.6L9.94,20S-4,41.77,18.45,76.73A141.59,141.59,0,0,0,42.78,108.5" transform="translate(-2.66 -2.29)"/></g></svg>